<svg xmlns="http://www.w3.org/2000/svg" viewBox="0 0 200 200" width="200" height="200">
  <defs>
    <radialGradient id="cl-bg" cx="50%" cy="35%" r="75%">
      <stop offset="0%" stop-color="#cdebff"/>
      <stop offset="55%" stop-color="#4aa6e6"/>
      <stop offset="100%" stop-color="#1f5fa8"/>
    </radialGradient>
    <linearGradient id="cl-hair" x1="0" y1="0" x2="0" y2="1">
      <stop offset="0%" stop-color="#7fb4e6"/>
      <stop offset="100%" stop-color="#2f5d92"/>
    </linearGradient>
  </defs>
  <rect width="200" height="200" rx="28" fill="url(#cl-bg)"/>
  <line x1="30" y1="44" x2="60" y2="44" stroke="#fff" stroke-width="3" opacity="0.4" stroke-linecap="round"/>
  <line x1="150" y1="158" x2="175" y2="158" stroke="#fff" stroke-width="3" opacity="0.4" stroke-linecap="round"/>
  <!-- back hair -->
  <path d="M60 72 C60 40 140 40 140 72 L142 148 C122 160 78 160 58 148z" fill="url(#cl-hair)"/>
  <!-- face -->
  <path d="M70 92 C70 132 130 132 130 92 C130 70 70 70 70 92z" fill="#ffe6d2"/>
  <!-- bangs swept over one eye -->
  <path d="M62 82 C64 54 138 54 138 84 C120 70 112 92 96 88 C92 70 78 70 62 82z" fill="url(#cl-hair)"/>
  <path d="M138 84 C132 64 96 62 92 88 C100 80 120 78 138 84z" fill="url(#cl-hair)"/>
  <!-- eyes (calm, half-lidded) -->
  <ellipse cx="84" cy="104" rx="8" ry="9" fill="#fff"/>
  <ellipse cx="116" cy="104" rx="8" ry="9" fill="#fff"/>
  <circle cx="84" cy="105" r="6" fill="#1d6fb0"/>
  <circle cx="116" cy="105" r="6" fill="#1d6fb0"/>
  <circle cx="86" cy="103" r="2" fill="#fff"/>
  <circle cx="118" cy="103" r="2" fill="#fff"/>
  <path d="M75 99 Q84 95 93 99" fill="none" stroke="#2f5d92" stroke-width="2" stroke-linecap="round"/>
  <path d="M107 99 Q116 95 125 99" fill="none" stroke="#2f5d92" stroke-width="2" stroke-linecap="round"/>
  <!-- mouth (neutral) -->
  <path d="M94 121 L106 121" fill="none" stroke="#b5715a" stroke-width="2.5" stroke-linecap="round"/>
</svg>
