<svg xmlns="http://www.w3.org/2000/svg" viewBox="0 0 200 200" width="200" height="200">
  <defs>
    <radialGradient id="sm-bg" cx="50%" cy="35%" r="75%">
      <stop offset="0%" stop-color="#ffd1a6"/>
      <stop offset="55%" stop-color="#e8702f"/>
      <stop offset="100%" stop-color="#a32414"/>
    </radialGradient>
    <linearGradient id="sm-hair" x1="0" y1="0" x2="0" y2="1">
      <stop offset="0%" stop-color="#3a2a24"/>
      <stop offset="100%" stop-color="#161010"/>
    </linearGradient>
  </defs>
  <rect width="200" height="200" rx="28" fill="url(#sm-bg)"/>
  <!-- sun disc -->
  <circle cx="100" cy="64" r="46" fill="#fff" opacity="0.12"/>
  <!-- topknot -->
  <path d="M92 40 C92 30 108 30 108 40 L106 58 L94 58z" fill="url(#sm-hair)"/>
  <!-- back hair -->
  <path d="M62 78 C60 44 140 44 138 78 L140 146 C120 158 80 158 60 146z" fill="url(#sm-hair)"/>
  <!-- face -->
  <path d="M70 92 C70 132 130 132 130 92 C130 70 70 70 70 92z" fill="#f2d2b0"/>
  <!-- bangs -->
  <path d="M64 86 C66 60 134 60 136 86 C118 76 116 88 100 86 C84 88 82 76 64 86z" fill="url(#sm-hair)"/>
  <!-- headband -->
  <rect x="60" y="84" width="80" height="12" rx="3" fill="#d22f2f"/>
  <circle cx="100" cy="90" r="5" fill="#fff"/>
  <circle cx="100" cy="90" r="3" fill="#d22f2f"/>
  <path d="M60 90 L42 84 L46 98z" fill="#d22f2f"/>
  <!-- determined eyes -->
  <ellipse cx="84" cy="108" rx="8" ry="8" fill="#fff"/>
  <ellipse cx="116" cy="108" rx="8" ry="8" fill="#fff"/>
  <circle cx="84" cy="108" r="5" fill="#5a2f1a"/>
  <circle cx="116" cy="108" r="5" fill="#5a2f1a"/>
  <circle cx="86" cy="106" r="1.8" fill="#fff"/>
  <circle cx="118" cy="106" r="1.8" fill="#fff"/>
  <path d="M76 101 L92 103" stroke="#161010" stroke-width="2.5" stroke-linecap="round"/>
  <path d="M124 101 L108 103" stroke="#161010" stroke-width="2.5" stroke-linecap="round"/>
  <!-- firm mouth -->
  <path d="M93 122 L107 122" fill="none" stroke="#9c6b4a" stroke-width="2.5" stroke-linecap="round"/>
</svg>
